<svg width="173" height="70" viewBox="0 0 173 70" fill="none" xmlns="http://www.w3.org/2000/svg">
<g id="Group" clip-path="url(#clip0_0_594)">
<path id="volo" d="M63.98 19.56L55.82 45H47.708L39.404 19.56H46.796L51.836 39.672L56.972 19.56H63.98ZM77.6109 18.792C81.4189 18.792 84.3949 19.992 86.5389 22.392C88.6829 24.76 89.7549 28.056 89.7549 32.28C89.7549 34.968 89.2589 37.336 88.2669 39.384C87.3069 41.4 85.8989 42.968 84.0429 44.088C82.2189 45.208 80.0589 45.768 77.5629 45.768C73.7549 45.768 70.7629 44.584 68.5869 42.216C66.4429 39.816 65.3709 36.504 65.3709 32.28C65.3709 29.592 65.8509 27.24 66.8109 25.224C67.8029 23.176 69.2109 21.592 71.0349 20.472C72.8909 19.352 75.0829 18.792 77.6109 18.792ZM77.6109 23.88C75.8829 23.88 74.5869 24.568 73.7229 25.944C72.8909 27.288 72.4749 29.4 72.4749 32.28C72.4749 35.16 72.8909 37.288 73.7229 38.664C74.5869 40.008 75.8669 40.68 77.5629 40.68C79.2589 40.68 80.5229 40.008 81.3549 38.664C82.2189 37.288 82.6509 35.16 82.6509 32.28C82.6509 29.4 82.2349 27.288 81.4029 25.944C80.5709 24.568 79.3069 23.88 77.6109 23.88ZM101.274 45.768C99.1941 45.768 97.5781 45.176 96.4261 43.992C95.2741 42.776 94.6981 41.064 94.6981 38.856V9.432L101.514 8.664V38.664C101.514 39.784 101.978 40.344 102.906 40.344C103.418 40.344 103.866 40.248 104.25 40.056L105.642 44.904C104.33 45.48 102.874 45.768 101.274 45.768ZM119.611 18.792C123.419 18.792 126.395 19.992 128.539 22.392C130.683 24.76 131.755 28.056 131.755 32.28C131.755 34.968 131.259 37.336 130.267 39.384C129.307 41.4 127.899 42.968 126.043 44.088C124.219 45.208 122.059 45.768 119.563 45.768C115.755 45.768 112.763 44.584 110.587 42.216C108.443 39.816 107.371 36.504 107.371 32.28C107.371 29.592 107.851 27.24 108.811 25.224C109.803 23.176 111.211 21.592 113.035 20.472C114.891 19.352 117.083 18.792 119.611 18.792ZM119.611 23.88C117.883 23.88 116.587 24.568 115.723 25.944C114.891 27.288 114.475 29.4 114.475 32.28C114.475 35.16 114.891 37.288 115.723 38.664C116.587 40.008 117.867 40.68 119.563 40.68C121.259 40.68 122.523 40.008 123.355 38.664C124.219 37.288 124.651 35.16 124.651 32.28C124.651 29.4 124.235 27.288 123.403 25.944C122.571 24.568 121.307 23.88 119.611 23.88Z" fill="black"/>
<path id="db" d="M151.59 25.83V48H149.16L148.89 45.81C148.37 46.61 147.72 47.24 146.94 47.7C146.16 48.14 145.29 48.36 144.33 48.36C142.45 48.36 140.98 47.62 139.92 46.14C138.88 44.66 138.36 42.67 138.36 40.17C138.36 38.55 138.61 37.11 139.11 35.85C139.61 34.59 140.33 33.61 141.27 32.91C142.21 32.19 143.31 31.83 144.57 31.83C146.19 31.83 147.61 32.48 148.83 33.78V25.5L151.59 25.83ZM144.93 46.17C145.77 46.17 146.49 45.98 147.09 45.6C147.69 45.2 148.27 44.61 148.83 43.83V36.09C148.31 35.41 147.75 34.9 147.15 34.56C146.57 34.2 145.91 34.02 145.17 34.02C143.95 34.02 143 34.53 142.32 35.55C141.66 36.57 141.33 38.09 141.33 40.11C141.33 42.15 141.64 43.67 142.26 44.67C142.88 45.67 143.77 46.17 144.93 46.17ZM164.51 31.83C166.31 31.83 167.74 32.56 168.8 34.02C169.86 35.46 170.39 37.48 170.39 40.08C170.39 41.72 170.14 43.17 169.64 44.43C169.14 45.67 168.42 46.64 167.48 47.34C166.54 48.02 165.44 48.36 164.18 48.36C162.52 48.36 161.12 47.66 159.98 46.26L159.71 48H157.28V25.83L160.04 25.5V34.17C161.18 32.61 162.67 31.83 164.51 31.83ZM163.52 46.17C164.74 46.17 165.69 45.68 166.37 44.7C167.07 43.7 167.42 42.16 167.42 40.08C167.42 37.94 167.1 36.4 166.46 35.46C165.82 34.5 164.91 34.02 163.73 34.02C162.33 34.02 161.1 34.84 160.04 36.48V44.04C160.46 44.7 160.97 45.22 161.57 45.6C162.19 45.98 162.84 46.17 163.52 46.17Z" fill="black"/>
<rect id="Rectangle" opacity="0.410738" x="0.5" y="13" width="13" height="13" rx="6.5" fill="#0049FF"/>
<rect id="Rectangle Copy 2" x="17.5" y="13" width="13" height="13" rx="6.5" fill="#0025FF"/>
<rect id="Rectangle Copy 3" x="17.5" y="30" width="13" height="13" rx="6.5" fill="#FCD12E"/>
<rect id="Rectangle Copy 5" opacity="0.212356" x="0.5" y="30" width="13" height="13" rx="6.5" fill="#FCD12E"/>
</g>
<defs>
<clipPath id="clip0_0_594">
<rect width="172" height="70" fill="white" transform="translate(0.5)"/>
</clipPath>
</defs>
</svg>
